<?xml version="1.0" encoding="utf-8"?>
<!-- Generator: Adobe Illustrator 24.0.1, SVG Export Plug-In . SVG Version: 6.00 Build 0)  -->
<svg version="1.1" id="Layer_1" xmlns="http://www.w3.org/2000/svg" xmlns:xlink="http://www.w3.org/1999/xlink" x="0px" y="0px"
	 width="234px" height="235px" viewBox="0 0 234 235" style="enable-background:new 0 0 234 235;" xml:space="preserve">
<style type="text/css">
	.st0{fill-rule:evenodd;clip-rule:evenodd;fill:#2F7AE5;}
</style>
<g>
	<path class="st0" d="M180.6,197l-10-34.3c0-0.2-0.1-0.5-0.4-1c-0.3-0.5-0.5-1-0.9-1.5c-0.3-0.5-0.6-0.8-0.9-0.9
		c-0.7-0.3-1-0.8-1-1.5c0-0.5,0.2-1,0.7-1.4s1.1-0.6,2-0.6h14.8c0.7,0,1.2,0.2,1.7,0.7c0.4,0.5,0.6,1,0.6,1.5c0,0.8-0.5,1.4-1.4,1.7
		c-0.4,0.1-0.7,0.3-0.9,0.4c-0.2,0.2-0.3,0.4-0.3,0.7s0.1,0.8,0.3,1.4l6.9,24.3l-3,10.4h-8.2V197z M192.7,183.1l-1.7-6.5l3.9-13.9
		c0.1-0.2,0.1-0.3,0.1-0.5c0-0.5-0.2-1-0.7-1.5c-0.4-0.5-1-0.8-1.6-1c-1.1-0.4-1.6-1-1.6-1.9c0-0.5,0.2-1,0.6-1.4
		c0.4-0.4,0.9-0.6,1.5-0.6h8.2c0.4,0,0.8,0.1,1.1,0.3s0.5,0.4,0.7,0.7s0.2,0.6,0.2,1c0,0.5-0.1,0.9-0.4,1.3
		c-0.3,0.4-0.7,0.6-1.2,0.7c-0.9,0.3-1.6,0.7-2.3,1.4c-0.7,0.6-1.2,1.6-1.6,3L192.7,183.1L192.7,183.1z M150.6,193.5
		c1.5,0,2.9-0.4,4.2-1.3c1.4-0.8,2.5-1.9,3.4-3.1c0.9-1.2,1.6-2.4,1.9-3.4c0.1-0.6,0.4-1.1,0.8-1.5c0.4-0.4,0.8-0.5,1.3-0.5
		c0.4,0,0.8,0.1,1,0.4c0.3,0.3,0.4,0.7,0.4,1.2V197h-13L150.6,193.5L150.6,193.5z M150.6,155.7h12.6V167c0,0.4-0.1,0.7-0.4,1
		c-0.3,0.2-0.7,0.3-1.1,0.3c-0.4,0-0.8-0.1-1.2-0.3s-0.6-0.5-0.7-1c-0.5-2-1.5-3.8-3-5.3s-3.5-2.3-6.1-2.5v-3.5H150.6z M150.6,174
		c1.4-0.6,2.3-1.3,2.8-2c0.5-0.8,0.9-1.8,1.1-3.2c0.1-0.5,0.3-0.9,0.7-1.2c0.3-0.3,0.7-0.4,1.1-0.4c0.5,0,0.8,0.2,1.2,0.5
		c0.3,0.4,0.5,0.9,0.5,1.5v13.9c0,0.3-0.1,0.6-0.5,0.8c-0.3,0.2-0.6,0.3-1.1,0.3c-0.8,0-1.3-0.4-1.5-1.1c-0.3-1.3-0.8-2.5-1.5-3.6
		c-0.7-1.2-1.7-1.8-2.8-2V174L150.6,174z M119.8,155.7h8.7v13c0,0.6-0.2,1.1-0.5,1.4c-0.3,0.4-0.8,0.5-1.3,0.5s-0.9-0.2-1.3-0.5
		s-0.7-0.8-0.8-1.4c-0.2-1-0.4-2.1-0.8-3.2c-0.4-1.2-0.9-2.4-1.6-3.6c-0.7-1.2-1.5-2.3-2.4-3.2L119.8,155.7L119.8,155.7z M102,155.7
		v3c-0.5,0.4-1.1,1-1.8,2c-0.7,1-1.3,2.2-1.8,3.5s-0.8,2.7-0.8,4c0,0.7-0.2,1.3-0.6,1.7s-0.9,0.6-1.5,0.6c-0.5,0-0.9-0.2-1.3-0.5
		s-0.6-0.8-0.6-1.4v-13L102,155.7L102,155.7z M104.2,155.7h13.5v33.9c0,1.5,0.2,2.5,0.6,3s0.9,0.9,1.7,1.3c0.7,0.4,1.1,0.8,1.2,1.3
		c0,0.2,0,0.4,0,0.4c0,0.9-0.9,1.3-2.7,1.3h-15.2c-1.5,0-2.2-0.6-2.2-1.7c0.1-0.6,0.3-1.1,0.5-1.2c0.2-0.2,0.6-0.3,1.1-0.4
		c0.5-0.1,0.9-0.3,1.1-0.7c0.2-0.3,0.4-1,0.4-2V155.7L104.2,155.7z M75.9,194.4c1.8-0.4,3.3-1.2,4.4-2.3s1.9-2.4,2.3-3.6
		c0.4-1.3,0.6-2.5,0.6-3.6V164c0-0.8-0.1-1.4-0.4-1.9s-0.7-1-1.3-1.6c-0.1-0.1-0.4-0.4-1-0.9s-1-0.9-1.3-1.2c-0.2-0.3-0.3-0.6-0.3-1
		c0-0.3,0.3-0.6,0.9-1.1c0.6-0.4,1.1-0.7,1.8-0.7H89c0.4,0,0.8,0.1,1.1,0.3c0.3,0.2,0.6,0.5,0.8,0.8c0.2,0.3,0.3,0.5,0.3,0.6
		c0,0.5-0.2,1-0.5,1.4s-0.8,0.8-1.5,1.3c-0.6,0.5-1,0.8-1.1,0.8c-0.9,0.9-1.3,2-1.3,3.5v22.1c0,1.6-0.4,3.2-1.3,5s-2.1,3.3-3.6,4.5
		s-3.2,1.8-4.9,1.8c-0.3,0-0.6,0-1-0.1L75.9,194.4L75.9,194.4z M73.7,194.4v3.5c-0.9,0.1-1.7,0.1-2.4,0.1c-2.4,0-4.8-0.4-7.1-1.1
		c-2.3-0.7-4.2-1.8-5.7-3.1c-1.4-1.3-2.2-2.9-2.2-4.6v-27.8c0-0.6-0.3-1-0.9-1.4c-0.6-0.4-1.2-0.7-1.7-1.1c-0.6-0.4-0.9-0.8-0.9-1.5
		c0.2-0.6,0.6-1.1,1.3-1.3c0.6-0.3,1.5-0.4,2.6-0.4h13.5c0.2,0,0.5,0.1,1,0.2c0.5,0.1,1,0.3,1.4,0.6s0.6,0.6,0.6,0.9
		c0,0.6-0.3,1.1-0.9,1.4c-0.6,0.3-1.2,0.7-1.7,1c-0.6,0.3-0.9,0.8-0.9,1.4v26.5c0,1.3,0.1,2.3,0.3,3.2c0.2,0.8,0.6,1.5,1.1,2.1
		C71.8,193.7,72.6,194.1,73.7,194.4L73.7,194.4z M32.1,155.7c4,0.1,7.3,0.7,9.8,1.7s4.3,2.4,5.4,4.3c1.1,1.9,1.7,4.4,1.7,7.5
		c0,4-1.2,7.1-3.7,9.2c-2.5,2.1-6,3.1-10.5,3.1c-1,0-1.9,0-2.7-0.1v-3.5c2.3,0,3.5-1,3.5-3v-11.3c0-1.3-0.2-2.2-0.7-2.7
		c-0.5-0.4-1.4-1-2.7-1.7L32.1,155.7L32.1,155.7z M148.4,155.7V197h-13c-2.3,0-3.5-0.4-3.5-1.3c0-0.6,0.1-1,0.4-1.3
		c0.3-0.3,0.7-0.6,1.2-0.8s0.9-0.4,1.1-0.6c0.2-0.2,0.3-0.4,0.3-0.8v-29.5c0-1-0.1-1.6-0.4-2.1c-0.3-0.4-0.7-0.8-1.2-1
		c-0.5-0.3-0.9-0.5-1.1-0.7c-0.2-0.2-0.4-0.7-0.4-1.4c0-0.5,0.2-0.9,0.7-1.2c0.5-0.4,1.1-0.5,1.9-0.5L148.4,155.7L148.4,155.7z
		 M18.3,142.7L115,27.2L99.6,139.6h16.3h3.2h16.3L119.9,27.2l96.7,115.5V33.5c0-8.5-6.9-15.4-15.4-15.4H119h-3.2H33.7
		c-8.5,0-15.4,6.9-15.4,15.4L18.3,142.7L18.3,142.7z M216.6,155.3V201c0,8.5-7.1,15.4-15.6,15.4H33.6c-8.5,0-15.4-6.9-15.4-15.4
		v-45.7h11.5l-0.1,42.5c0,3.8,4.3,7.6,9,7.6h158.9c5,0,8-4.1,8-8.1l-0.1-42H216.6L216.6,155.3z M34.1,5h166.6
		c16,0,29.1,13.1,29.1,29.1v166.6c0,16-13.1,29.1-29.1,29.1H34.1c-16,0-29.1-13.1-29.1-29.1V34.1C5,18.1,18.1,5,34.1,5L34.1,5z
		 M34.1,10.1h166.6c13.2,0,24,10.8,24,24v166.6c0,13.2-10.8,24-24,24H34.1c-13.2,0-24-10.8-24-24V34.1
		C10.1,20.9,20.9,10.1,34.1,10.1L34.1,10.1z"/>
</g>
</svg>
