<?xml version="1.0" encoding="utf-8"?>
<!-- Generator: Adobe Illustrator 22.1.0, SVG Export Plug-In . SVG Version: 6.00 Build 0)  -->
<svg version="1.1" id="Layer_1" xmlns="http://www.w3.org/2000/svg" xmlns:xlink="http://www.w3.org/1999/xlink" x="0px" y="0px"
	 width="500px" height="500px" viewBox="0 0 500 500" style="enable-background:new 0 0 500 500;" xml:space="preserve">
<style type="text/css">
	.st0{fill:#2f7ae5;}
</style>
<g>
	<path class="st0" d="M151.3,365.9c-47.2-4.2-78.5-28-96.1-71.9c15.8,2.1,30.5,2.3,45.8-1.9c-53.1-12.7-82.4-58.9-81.2-102.2
		c7.1,3.8,14.2,6.8,21.6,8.8c7.4,2,14.9,3.7,22.8,3.4C19.1,164.1,8.8,118.7,33.8,64.4c56.2,66.2,126.5,102.4,213,108.3
		c-1.9-10-2.7-19.7-2.1-29.4c2.4-34.6,17.9-62,47-80.6c41.7-26.7,92.1-21.1,127.9,13.1c2.1,2,3.8,2.7,6.8,2
		c19.9-4.5,38.8-11.4,56.6-21.3c1.2-0.7,2.3-1.9,4.4-1.2c-7.9,23.2-22.4,41.1-44,55c20.4-1.9,38.4-7.9,56.5-14.1
		c-6.5,11-14.6,20.4-23.2,29.2c-7.2,7.4-14.9,14.2-23.3,20.2c-2.2,1.6-3.1,3.2-3,6.1c1.8,64.1-15.9,122.6-51.2,175.8
		c-31.6,47.7-73.8,83-126.8,105.1c-28.4,11.8-58.1,18.5-88.8,20.9c-36.9,3-73.1-0.4-108.7-10.7c-26.3-7.6-51-18.7-75.1-34.3
		C56.3,413.4,106.2,399.8,151.3,365.9z"/>
</g>
</svg>
