<?xml version="1.0" encoding="utf-8"?>
<!-- Generator: Adobe Illustrator 22.1.0, SVG Export Plug-In . SVG Version: 6.00 Build 0)  -->
<svg fill="#2f7ae5" version="1.1" id="Layer_1" xmlns="http://www.w3.org/2000/svg" xmlns:xlink="http://www.w3.org/1999/xlink" x="0px" y="0px"
	 width="500px" height="500px" viewBox="0 0 500 500" style="enable-background:new 0 0 500 500;" xml:space="preserve">
<style type="text/css">
	.st0{fill:#2f7ae5;}
</style>
<g>
	<path class="st0" d="M343,0.1c5.8,2,12,0.9,18,1.8c5.1,0.8,10.3,1,15.5,1.2c2.6,0.1,3.6,1,3.6,3.8c-0.1,24.2-0.1,48.4,0,72.6
		c0,3.4-1.4,3.5-4,3.5c-17.8,0.3-35.7-0.8-53.5,0.7c-20.6,1.7-32.3,12.9-33,33.6c-0.7,20.8-0.2,41.5-0.5,62.3c0,3.9,2.3,3.1,4.4,3.1
		c26,0,51.9,0.1,77.9-0.1c4,0,5.5,0.4,4.9,5.2c-3.6,26.3-6.9,52.7-10.2,79.1c-0.4,3.5-1.7,4.7-5.4,4.6c-22.4-0.2-44.8,0-67.2-0.2
		c-3.2,0-4.5,0.5-4.5,4.1c0.1,73.7,0.1,147.4,0.1,221.1c0,0.8,0.2,1.6,0.2,2.4c-30.5,0-61.1,0-91.6,0c-0.1-1.8-0.2-3.6-0.2-5.3
		c0-72.3-0.1-144.5,0.1-216.8c0-4.5-1.2-5.6-5.6-5.5c-22.2,0.2-44.5,0-66.7,0.2c-3.7,0-4.6-0.9-4.5-4.5c0.2-26.6,0.2-53.3,0-79.9
		c0-3.8,1.1-4.5,4.6-4.5c22.6,0.2,45.1,0,67.7,0.2c3.7,0,4.5-1.1,4.5-4.6c-0.1-23.7-0.6-47.4,0.4-71.1c1.1-27.9,9.4-53.5,29-74.4
		c15.1-16,33.9-25,55.2-29.6c4.6-1,9.6-0.5,13.9-2.9C311.9,0.1,327.4,0.1,343,0.1z"/>
</g>
</svg>
