<?xml version="1.0" encoding="utf-8"?>
<!-- Generator: Adobe Illustrator 22.1.0, SVG Export Plug-In . SVG Version: 6.00 Build 0)  -->
<svg version="1.1" id="Layer_1" xmlns="http://www.w3.org/2000/svg" xmlns:xlink="http://www.w3.org/1999/xlink" x="0px" y="0px"
	 width="500px" height="500px" viewBox="0 0 500 500" style="enable-background:new 0 0 500 500;" xml:space="preserve">
<style type="text/css">
	.st0{fill:#2f7ae5;}
</style>
<g>
	<path class="st0" d="M276.2,210.8c6.8-8.6,13-17,20.9-24c20.6-18.2,44.8-27.4,72.1-28.4c24-0.9,47.5,1.5,69.6,11.7
		c29.2,13.5,44.5,37.9,52.7,67.8c5.9,21.7,8,44,8.1,66.3c0.4,63.2,0.2,126.4,0.4,189.7c0,4.5-1.5,5.2-5.5,5.2
		c-30.7-0.2-61.4-0.2-92.1,0c-5,0-6.3-1-6.3-6.2c0.2-55.7,0.1-111.4,0-167.1c0-11.6-0.9-23.1-3.2-34.5c-7-34.6-29.3-45.6-60.3-42
		c-29.2,3.4-45,20.6-49.7,52c-1.7,11.5-2.4,23-2.4,34.6c0,52.7,0,105.3,0.1,158c0,4.5-0.8,6.1-5.8,6.1c-30.9-0.3-61.8-0.2-92.7,0
		c-4.3,0-5.4-1.1-5.4-5.4c0.1-107.7,0.1-215.5,0-323.2c0-4.4,1.3-5.3,5.5-5.3c29.5,0.2,59,0.2,88.4,0c4.7,0,5.8,1.3,5.7,5.8
		C276,184.8,276.2,197.8,276.2,210.8z"/>
	<path class="st0" d="M8.3,332.8c0-53.4,0.1-106.9-0.2-160.3c0-5.6,1.6-6.6,6.8-6.5c30.5,0.2,61,0.2,91.4,0c4.5,0,5.8,0.9,5.8,5.6
		c-0.1,107.5-0.2,215,0,322.5c0,5.1-1.7,5.9-6.2,5.8c-30.5-0.2-61-0.2-91.4,0c-5,0-6.4-1.1-6.4-6.2C8.3,440.1,8.3,386.5,8.3,332.8z"
		/>
	<path class="st0" d="M119.9,59.8c0.2,33.1-26.7,60.6-59.5,60.8C27.5,120.8,0,93.3,0,60C0,27.3,26.9,0.3,59.6,0
		C92.6-0.3,119.7,26.6,119.9,59.8z"/>
</g>
</svg>
