<?xml version="1.0" encoding="utf-8"?>
<!-- Generator: Adobe Illustrator 22.1.0, SVG Export Plug-In . SVG Version: 6.00 Build 0)  -->
<svg fill="#2f7ae5" version="1.1" id="Layer_1" xmlns="http://www.w3.org/2000/svg" xmlns:xlink="http://www.w3.org/1999/xlink" x="0px" y="0px"
	 width="500px" height="500px" viewBox="0 0 500 500" style="enable-background:new 0 0 500 500;" xml:space="preserve">
<style type="text/css">
	.st0{fill:#2f7ae5;}
</style>
<g>
	<path class="st0" d="M499.3,141.6c0,71.3,0,142.6,0,213.9c-1.5,0.6-0.9,1.9-1,2.9c-0.7,10-1.8,20-3.9,29.9
		c-11.3,51.7-41.4,86.6-92.3,102.6c-19.8,6.3-40.4,7.5-61.1,8.2c-1.6,0.1-3.6-1-4.9,0.9c-58.3,0-116.5,0-174.8,0
		c-1.3-2-3.3-0.9-4.9-1c-16.7-0.8-33.4-1.8-49.8-5.8c-41.3-10-72-33.4-90.3-72.1C6,399.2,2.3,375.6,1.6,351.6
		c-2.1-67-2.1-134,0-201.1c0.5-16.3,2.2-32.4,6.6-48.2c11.7-42.3,37.3-72.5,78.2-89.1C109.2,4,133.2,1.8,157.5,1
		c1.6-0.1,3.6,1,4.9-1C220,0,277.6,0,335.2,0c1.1,1.8,2.9,0.9,4.4,0.9c14.8,0.7,29.5,1.5,44.1,3.9c61.5,10.1,105.1,55.5,112.8,117.5
		C497.4,128.7,497.1,135.3,499.3,141.6z M250,455c13.3,0,26.7,0.1,40,0c28.3-0.4,56.7,0.6,84.8-3.9c38.3-6.1,63.8-27.3,74.2-65.3
		c4.3-15.7,4.8-31.8,5.3-47.9c1.5-46.2,1.1-92.4,0.7-138.7c-0.2-24.4-0.1-48.8-3.6-73.1c-5.6-38.9-29.7-65.8-67.4-75
		c-17.8-4.4-36.1-4.7-54.3-5c-47-0.9-94.1-0.8-141.1-0.3c-22,0.3-44,0-65.7,4.1C85.6,57,61.1,78.3,51.5,115.6
		c-4.4,17.2-4.7,34.8-5.2,52.3c-1.1,40.5-1,81-0.7,121.6c0.3,28-0.4,56,3.6,83.8c4,27.9,16.4,50.9,41.3,65.7
		c15.8,9.4,33.5,12.9,51.7,14.1C178.1,455.5,214.1,455,250,455z"/>
	<path class="st0" d="M250.2,378.5c-70.9-0.2-128.5-57.8-128.4-128.5c0.1-70.8,57.7-128.4,128.5-128.3
		c71,0.1,128.4,57.6,128.3,128.5C378.6,321,320.9,378.7,250.2,378.5z M167,250c-0.1,46,36.9,83.1,82.9,83.3
		c46.3,0.2,83.5-36.9,83.5-83.1c0.1-46-36.8-83.1-82.9-83.3C204.4,166.6,167.1,203.7,167,250z"/>
	<path class="st0" d="M384.4,86.7c16.7,0.3,29.6,13.8,29.2,30.7c-0.4,16.6-14,29.5-30.8,29.2c-16.4-0.4-29.4-14.2-29-31
		C354.2,99.2,367.9,86.3,384.4,86.7z"/>
</g>
</svg>
